<?xml version="1.0" encoding="UTF-8"?>
<!DOCTYPE svg PUBLIC "-//W3C//DTD SVG 1.1//EN" "http://www.w3.org/Graphics/SVG/1.1/DTD/svg11.dtd">
<svg xmlns="http://www.w3.org/2000/svg" version="1.1" width="1024px" height="1024px" style="shape-rendering:geometricPrecision; text-rendering:geometricPrecision; image-rendering:optimizeQuality; fill-rule:evenodd; clip-rule:evenodd" xmlns:xlink="http://www.w3.org/1999/xlink">
<g><path style="opacity:0.176" fill="#faf1e7" d="M 626.5,95.5 C 653.846,94.4189 671.013,107.086 678,133.5C 680.994,145.266 682.327,157.266 682,169.5C 692.592,175.881 703.425,181.881 714.5,187.5C 723.659,194.246 732.992,200.746 742.5,207C 746.608,212.116 751.775,215.616 758,217.5C 775.539,199.629 794.039,182.795 813.5,167C 819.468,160.031 825.801,153.364 832.5,147C 844.225,141.314 853.058,144.147 859,155.5C 861.506,159.844 863.172,164.511 864,169.5C 870.057,204.252 871.057,239.252 867,274.5C 863.341,289.145 857.508,302.812 849.5,315.5C 910.135,421.724 920.301,533.057 880,649.5C 830.443,770.741 743.61,851.241 619.5,891C 503.411,921.489 394.745,905.489 293.5,843C 194.325,776.065 135.158,683.231 116,564.5C 102.166,437.669 139.333,328.835 227.5,238C 245.217,222.075 263.717,207.242 283,193.5C 282.616,175.311 283.949,157.311 287,139.5C 299.891,104.644 323.725,94.1444 358.5,108C 370.927,115.777 382.427,124.611 393,134.5C 395.473,140.133 399.639,143.799 405.5,145.5C 417.616,142.894 429.616,140.06 441.5,137C 474.511,131.797 507.844,130.131 541.5,132C 549.572,132.837 557.572,134.003 565.5,135.5C 571.129,132.405 575.796,128.238 579.5,123C 593.48,110.686 609.146,101.52 626.5,95.5 Z"/></g>
<g><path style="opacity:1" fill="#694637" d="M 538.5,901.5 C 529.098,900.172 519.598,900.172 510,901.5C 508.47,900.08 506.637,899.08 504.5,898.5C 505.594,896.164 506.927,896.164 508.5,898.5C 510.058,897.629 511.725,896.629 513.5,895.5C 514.479,898.953 515.979,899.286 518,896.5C 518.826,898.405 519.993,898.739 521.5,897.5C 520.167,896.5 520.167,895.5 521.5,894.5C 520.15,893.05 518.484,892.383 516.5,892.5C 516.5,891.5 516.5,890.5 516.5,889.5C 523.577,889.888 528.577,889.555 531.5,888.5C 663.06,876.999 763.894,815.666 834,704.5C 864.075,653.778 881.575,599.112 886.5,540.5C 886.338,542.527 886.505,544.527 887,546.5C 887.498,543.183 887.665,539.85 887.5,536.5C 890.214,536.75 892.881,536.917 895.5,537C 893.657,536.226 891.824,534.726 890,532.5C 889.667,533.167 889.333,533.833 889,534.5C 888.478,514.823 888.145,495.156 888,475.5C 889.049,476.517 890.216,476.684 891.5,476C 890.911,472.654 891.578,472.654 893.5,476C 891.745,476.72 890.911,477.887 891,479.5C 896.613,476.62 896.613,473.954 891,471.5C 890.092,473.439 888.592,474.439 886.5,474.5C 886.391,467.327 885.391,461.66 883.5,457.5C 876.061,410.948 859.894,367.614 835,327.5C 832.713,329.054 830.546,330.721 828.5,332.5C 828.062,332.565 827.728,332.399 827.5,332C 828.5,331 829.5,330 830.5,329C 829.262,329.077 828.262,328.911 827.5,328.5C 828.888,326.891 829.888,325.058 830.5,323C 828.94,320.711 827.773,318.211 827,315.5C 824.234,318.777 821.067,321.443 817.5,323.5C 839.199,303.758 850.365,279.091 851,249.5C 851.827,236.327 851.66,223.327 850.5,210.5C 850.131,196.209 847.964,182.209 844,168.5C 842.574,165.139 840.407,164.639 837.5,167C 823.749,182.086 808.749,195.753 792.5,208C 776.059,221.428 763.892,237.928 756,257.5C 751.53,272.133 751.363,286.8 755.5,301.5C 753.85,298.472 751.683,295.138 749,291.5C 748.28,293.112 748.446,294.612 749.5,296C 746.992,300.444 747.492,300.611 751,296.5C 751.333,298.047 750.833,299.38 749.5,300.5C 750.665,301.584 751.998,302.417 753.5,303C 751.351,303.579 749.185,304.079 747,304.5C 745.674,304.245 744.674,303.578 744,302.5C 743.722,303.416 743.222,304.082 742.5,304.5C 735.782,281.572 738.115,259.572 749.5,238.5C 728.653,218.732 705.32,202.399 679.5,189.5C 676.711,209.323 672.044,228.656 665.5,247.5C 657.18,267.491 645.846,285.491 631.5,301.5C 629.519,303.144 627.519,304.81 625.5,306.5C 631.3,311.955 636.3,317.955 640.5,324.5C 636.215,319.548 631.548,314.881 626.5,310.5C 624.246,311.124 622.579,312.457 621.5,314.5C 620.264,315.246 618.93,315.579 617.5,315.5C 617.649,314.448 617.483,313.448 617,312.5C 616.333,313.833 616.333,315.167 617,316.5C 621.104,320.095 624.604,324.095 627.5,328.5C 619.62,321.788 612.62,314.288 606.5,306C 606.862,304.775 607.362,303.609 608,302.5C 633.148,282.905 649.814,257.571 658,226.5C 665.873,198.195 667.54,169.528 663,140.5C 654.492,112.167 637.325,105.334 611.5,120C 580.152,141.378 559.652,170.545 550,207.5C 544.507,227.46 542.174,247.794 543,268.5C 541.537,270.885 539.371,271.885 536.5,271.5C 516.476,266.497 496.143,264.497 475.5,265.5C 480.985,264.673 486.652,264.173 492.5,264C 483.134,263.317 473.801,263.651 464.5,265C 465.793,265.49 467.127,265.657 468.5,265.5C 456.209,267.357 443.876,269.69 431.5,272.5C 429.307,272.674 427.473,272.007 426,270.5C 425.172,224.672 410.506,184.005 382,148.5C 371.094,136.588 358.261,127.421 343.5,121C 329.348,116.087 317.848,119.587 309,131.5C 302.636,143.661 299.469,156.661 299.5,170.5C 300.692,210.238 312.192,246.571 334,279.5C 339.036,286.239 344.536,292.572 350.5,298.5C 348.408,298.439 346.908,297.439 346,295.5C 345.289,297.367 345.789,298.867 347.5,300C 346.833,300.667 346.167,300.667 345.5,300C 344.939,298.324 343.939,296.991 342.5,296C 344.657,294.915 344.824,293.749 343,292.5C 342,293.833 341,293.833 340,292.5C 339.735,294.651 338.735,296.318 337,297.5C 336.5,297.167 336,296.833 335.5,296.5C 336.263,295.281 337.263,294.281 338.5,293.5C 336.993,292.261 335.826,292.595 335,294.5C 334.577,293.044 333.744,292.544 332.5,293C 332.833,293.333 333.167,293.667 333.5,294C 332.044,294.423 331.544,295.256 332,296.5C 334.391,299.597 337.224,301.763 340.5,303C 339.304,302.346 339.304,301.846 340.5,301.5C 341.354,302.522 342.354,303.355 343.5,304C 342.5,304.333 341.5,304.667 340.5,305C 341.823,305.816 342.489,306.983 342.5,308.5C 321.879,289.005 307.045,265.672 298,238.5C 295.53,229.425 292.863,220.425 290,211.5C 215.097,262.899 165.43,332.566 141,420.5C 137.662,433.689 135.162,447.023 133.5,460.5C 132.99,463.983 132.323,467.316 131.5,470.5C 131.631,469.761 131.464,469.094 131,468.5C 130.696,470.441 129.863,472.107 128.5,473.5C 128.643,491.452 128.809,509.452 129,527.5C 129.169,515.659 129.669,503.993 130.5,492.5C 130.286,510.183 130.619,527.85 131.5,545.5C 141.664,643.663 182.997,725.83 255.5,792C 262.061,797.406 268.728,802.572 275.5,807.5C 299.216,827.495 325.549,843.495 354.5,855.5C 378.622,866.43 403.622,874.763 429.5,880.5C 431.667,881.641 434,882.641 436.5,883.5C 435.106,884.687 435.273,885.354 437,885.5C 438.092,884.704 439.259,884.037 440.5,883.5C 450.751,885.547 461.085,887.047 471.5,888C 468.181,889.431 464.848,889.931 461.5,889.5C 464.833,890.833 468.167,892.167 471.5,893.5C 472.95,892.15 473.617,890.484 473.5,888.5C 483.157,889.079 492.824,889.579 502.5,890C 501.083,892.826 499.583,892.993 498,890.5C 497.5,891.5 497,892.5 496.5,893.5C 496.846,894.696 497.346,894.696 498,893.5C 497.923,894.738 498.089,895.738 498.5,896.5C 499.833,895.167 501.167,893.833 502.5,892.5C 504.478,894.531 504.478,896.197 502.5,897.5C 499.973,898.214 497.473,898.88 495,899.5C 494.174,897.595 493.007,897.261 491.5,898.5C 492.025,899.192 492.692,899.692 493.5,900C 488.649,900.174 483.982,900.674 479.5,901.5C 348.894,888.985 247.728,828.318 176,719.5C 116.405,621.001 101.405,516.001 131,404.5C 158.561,316.286 210.561,246.619 287,195.5C 286.549,181.848 286.549,168.182 287,154.5C 288.534,137.594 295.701,123.76 308.5,113C 323.345,103.668 338.678,103.001 354.5,111C 373.341,120.337 389.007,133.503 401.5,150.5C 456.971,133.784 513.304,129.951 570.5,139C 583.683,121.825 600.35,109.158 620.5,101C 641.235,95.2871 657.401,101.454 669,119.5C 677.012,136.559 680.845,154.559 680.5,173.5C 708.609,186.966 734.276,203.966 757.5,224.5C 763.619,217.21 769.952,210.044 776.5,203C 796.45,186.717 815.45,169.384 833.5,151C 841.9,146.552 849.067,148.052 855,155.5C 859.869,166.309 862.869,177.643 864,189.5C 867.606,217.889 867.273,246.222 863,274.5C 859.917,289.767 853.75,303.6 844.5,316C 894.697,397.999 911.53,486.499 895,581.5C 868.64,706.45 799.473,799.284 687.5,860C 640.579,883.647 590.912,897.481 538.5,901.5 Z"/></g>
<g><path style="opacity:1" fill="#fef5e9" d="M 627.5,328.5 C 648.768,356.797 660.934,388.797 664,424.5C 669.475,433.441 672.642,443.107 673.5,453.5C 669.743,453.071 666.243,453.737 663,455.5C 660.778,458.945 661.278,461.945 664.5,464.5C 667.421,465.407 670.421,465.74 673.5,465.5C 673.578,469.954 672.911,474.287 671.5,478.5C 667.92,478.742 664.253,478.909 660.5,479C 657.48,481.264 656.813,484.097 658.5,487.5C 661.254,489.606 664.254,491.272 667.5,492.5C 656.118,516.366 638.118,533.2 613.5,543C 607.758,544.803 602.091,546.803 596.5,549C 594.077,552.379 593.91,555.879 596,559.5C 597.574,560.848 599.407,561.514 601.5,561.5C 605.242,560.985 608.909,560.152 612.5,559C 620.658,555.421 628.658,551.587 636.5,547.5C 645.111,552.304 654.111,556.304 663.5,559.5C 663.833,560 664.167,560.5 664.5,561C 663.521,563.433 662.855,565.933 662.5,568.5C 653.803,594.263 645.469,620.263 637.5,646.5C 635.696,634.946 632.196,623.946 627,613.5C 624.79,610.71 621.956,609.877 618.5,611C 617.056,612.126 616.39,613.626 616.5,615.5C 619.492,625.798 621.992,636.131 624,646.5C 599.746,621.95 570.579,606.117 536.5,599C 496.979,591.777 457.813,593.277 419,603.5C 407.073,594.287 393.573,589.787 378.5,590C 374.928,592.626 374.595,595.626 377.5,599C 393.311,601.985 406.478,609.485 417,621.5C 424.182,631.697 425.182,642.363 420,653.5C 416.522,648.721 412.689,644.221 408.5,640C 400.923,636.91 397.756,639.41 399,647.5C 403.5,652.667 408,657.833 412.5,663C 408.282,668.268 402.948,671.268 396.5,672C 392.209,665.375 386.876,659.709 380.5,655C 373.174,655.488 371.174,658.988 374.5,665.5C 354.706,662.473 336.373,655.639 319.5,645C 314.763,641.386 310.597,637.219 307,632.5C 306.768,633.737 306.268,634.737 305.5,635.5C 302.604,622.52 303.77,609.853 309,597.5C 314.606,583.931 322.439,571.931 332.5,561.5C 345.959,564.084 359.793,566.084 374,567.5C 375.5,567.333 377,567.167 378.5,567C 375.964,566.814 373.631,566.314 371.5,565.5C 380.06,566.123 383.227,562.456 381,554.5C 368.124,550.317 355.624,545.15 343.5,539C 329.413,530.577 317.579,519.744 308,506.5C 304.831,501.5 302.331,496.166 300.5,490.5C 303.556,489.804 306.556,488.97 309.5,488C 312.425,484.304 312.092,480.971 308.5,478C 304.344,478.052 300.51,477.219 297,475.5C 296.172,471.129 296.339,466.795 297.5,462.5C 302.178,464.337 306.344,463.67 310,460.5C 311.041,457.364 310.207,454.864 307.5,453C 304.28,452.284 301.28,451.117 298.5,449.5C 300.115,442.821 302.615,436.488 306,430.5C 309.709,396.373 320.375,364.706 338,335.5C 344.961,326.87 352.295,318.537 360,310.5C 360.738,307.788 360.071,305.455 358,303.5C 355.6,301.585 353.1,299.919 350.5,298.5C 344.536,292.572 339.036,286.239 334,279.5C 312.192,246.571 300.692,210.238 299.5,170.5C 299.469,156.661 302.636,143.661 309,131.5C 317.848,119.587 329.348,116.087 343.5,121C 358.261,127.421 371.094,136.588 382,148.5C 410.506,184.005 425.172,224.672 426,270.5C 427.473,272.007 429.307,272.674 431.5,272.5C 443.876,269.69 456.209,267.357 468.5,265.5C 470.833,265.5 473.167,265.5 475.5,265.5C 496.143,264.497 516.476,266.497 536.5,271.5C 539.371,271.885 541.537,270.885 543,268.5C 542.174,247.794 544.507,227.46 550,207.5C 559.652,170.545 580.152,141.378 611.5,120C 637.325,105.334 654.492,112.167 663,140.5C 667.54,169.528 665.873,198.195 658,226.5C 649.814,257.571 633.148,282.905 608,302.5C 607.362,303.609 606.862,304.775 606.5,306C 612.62,314.288 619.62,321.788 627.5,328.5 Z"/></g>
<g><path style="opacity:1" fill="#fce3d1" d="M 528.5,149.5 C 514.832,150.312 500.999,150.978 487,151.5C 484.31,151.497 481.81,151.164 479.5,150.5C 495.816,149.631 512.15,149.297 528.5,149.5 Z"/></g>
<g><path style="opacity:1" fill="#fec4b3" d="M 528.5,149.5 C 534.678,149.844 540.678,150.511 546.5,151.5C 545.448,151.351 544.448,151.517 543.5,152C 548.167,152.667 552.833,153.333 557.5,154C 552.529,161.811 548.196,169.977 544.5,178.5C 544.624,179.107 544.957,179.44 545.5,179.5C 535.658,204.208 529.991,229.875 528.5,256.5C 513.845,253.516 499.012,252.183 484,252.5C 472.022,252.109 460.188,253.109 448.5,255.5C 445.696,254.888 442.696,254.888 439.5,255.5C 439.277,248.104 438.444,240.77 437,233.5C 435.956,225.915 434.122,219.248 431.5,213.5C 426.315,195.965 418.981,179.298 409.5,163.5C 432.296,156.367 455.629,152.034 479.5,150.5C 481.81,151.164 484.31,151.497 487,151.5C 500.999,150.978 514.832,150.312 528.5,149.5 Z"/></g>
<g><path style="opacity:1" fill="#febdab" d="M 622.5,153.5 C 630.816,153.977 635.983,158.31 638,166.5C 638.672,209.809 625.672,248.476 599,282.5C 590.886,290.809 582.052,291.642 572.5,285C 570.031,282.559 568.198,279.726 567,276.5C 566.359,240.399 575.693,207.066 595,176.5C 601.674,165.643 610.84,157.977 622.5,153.5 Z"/></g>
<g><path style="opacity:1" fill="#febdaa" d="M 336.5,157.5 C 346.375,157.853 354.542,161.853 361,169.5C 388.354,201.896 400.688,239.23 398,281.5C 391.196,292.523 382.362,294.356 371.5,287C 344.731,257.454 329.064,222.787 324.5,183C 323.458,171.888 327.458,163.388 336.5,157.5 Z"/></g>
<g><path style="opacity:1" fill="#f3d3c2" d="M 546.5,151.5 C 550.897,151.425 555.23,151.925 559.5,153C 554.438,161.623 549.772,170.456 545.5,179.5C 544.957,179.44 544.624,179.107 544.5,178.5C 548.196,169.977 552.529,161.811 557.5,154C 552.833,153.333 548.167,152.667 543.5,152C 544.448,151.517 545.448,151.351 546.5,151.5 Z"/></g>
<g><path style="opacity:1" fill="#fedfad" d="M 850.5,210.5 C 849.946,239.67 840.779,265.67 823,288.5C 806.005,307.443 785.171,314.443 760.5,309.5C 758.32,307.137 756.653,304.47 755.5,301.5C 751.363,286.8 751.53,272.133 756,257.5C 763.892,237.928 776.059,221.428 792.5,208C 808.749,195.753 823.749,182.086 837.5,167C 840.407,164.639 842.574,165.139 844,168.5C 847.964,182.209 850.131,196.209 850.5,210.5 Z"/></g>
<g><path style="opacity:1" fill="#fec6b5" d="M 742.5,304.5 C 744.048,308.598 745.881,312.598 748,316.5C 748.667,318.167 748.667,319.833 748,321.5C 738,344.833 728,368.167 718,391.5C 717.667,396.167 717.333,400.833 717,405.5C 710.99,422.029 705.49,438.696 700.5,455.5C 695.926,455.086 691.426,454.419 687,453.5C 686.489,442.122 683.489,431.456 678,421.5C 673.95,387.425 662.617,356.092 644,327.5C 642.961,326.29 641.794,325.29 640.5,324.5C 636.3,317.955 631.3,311.955 625.5,306.5C 627.519,304.81 629.519,303.144 631.5,301.5C 646.843,286.541 658.51,268.875 666.5,248.5C 666.376,247.893 666.043,247.56 665.5,247.5C 672.044,228.656 676.711,209.323 679.5,189.5C 705.32,202.399 728.653,218.732 749.5,238.5C 738.115,259.572 735.782,281.572 742.5,304.5 Z"/></g>
<g><path style="opacity:1" fill="#fec6b4" d="M 342.5,308.5 C 323.052,329.716 309.552,354.383 302,382.5C 298.209,396.666 295.209,410.999 293,425.5C 289.274,432.4 286.774,439.734 285.5,447.5C 277.415,447.099 269.415,447.599 261.5,449C 257.28,453.108 257.613,456.775 262.5,460C 268.465,459.761 274.465,459.594 280.5,459.5C 282.348,463.854 283.015,468.52 282.5,473.5C 281.498,470.278 281.165,466.278 281.5,461.5C 274.825,461.334 268.158,461.5 261.5,462C 261.833,462.333 262.167,462.667 262.5,463C 261.54,464.419 260.707,465.919 260,467.5C 259.333,468.833 258.667,468.833 258,467.5C 258,468.833 258,470.167 258,471.5C 257.346,470.304 256.846,470.304 256.5,471.5C 257.65,474.32 258.816,474.654 260,472.5C 260.5,473 261,473.5 261.5,474C 260,474.833 258.833,476 258,477.5C 256.615,476.449 255.615,475.116 255,473.5C 253.256,474.649 253.089,475.983 254.5,477.5C 252.869,479.22 251.703,481.22 251,483.5C 250.89,481.152 249.723,479.652 247.5,479C 250.084,477.006 249.918,476.506 247,477.5C 245.238,477.056 245.405,476.556 247.5,476C 246.5,475.667 245.5,475.333 244.5,475C 249.328,472.939 249.328,471.606 244.5,471C 247.668,470.418 248.001,469.418 245.5,468C 248.236,464.899 251.236,462.066 254.5,459.5C 251.18,456.181 249.846,456.848 250.5,461.5C 247.632,461.915 245.465,460.915 244,458.5C 239.34,462.615 239.84,465.115 245.5,466C 243.5,466.333 241.5,466.667 239.5,467C 240.167,468.333 241.167,469.333 242.5,470C 241.833,470.333 241.167,470.667 240.5,471C 242.087,471.862 243.754,472.529 245.5,473C 243.285,473.17 241.285,473.837 239.5,475C 240.549,475.492 241.549,475.326 242.5,474.5C 242.833,475 243.167,475.5 243.5,476C 242.711,476.546 241.711,477.213 240.5,478C 240.501,479.399 240.835,480.899 241.5,482.5C 240.406,484.836 239.073,484.836 237.5,482.5C 238.167,482.167 238.833,481.833 239.5,481.5C 239.099,479.566 238.099,478.066 236.5,477C 238.497,475.847 238.83,474.347 237.5,472.5C 236.544,473.865 235.878,475.365 235.5,477C 236.33,478.465 236.496,479.965 236,481.5C 235.683,479.699 235.016,479.366 234,480.5C 233.79,478.942 233.29,477.609 232.5,476.5C 231.373,475.878 230.373,475.045 229.5,474C 216.968,471.797 210.468,464.297 210,451.5C 207.034,448.735 204.367,449.068 202,452.5C 201.989,466.844 194.823,474.344 180.5,475C 178.845,476.444 178.178,478.278 178.5,480.5C 178.67,481.822 178.337,482.989 177.5,484C 180.544,484.359 180.878,485.026 178.5,486C 179.28,487.073 179.113,488.24 178,489.5C 177.085,488.672 176.419,487.672 176,486.5C 175.167,488 174,489.167 172.5,490C 172.316,492.276 172.316,494.61 172.5,497C 170.646,498.29 170.313,499.79 171.5,501.5C 171.167,501.833 170.833,502.167 170.5,502.5C 169.673,500.838 168.507,499.505 167,498.5C 165.89,500.037 164.39,500.703 162.5,500.5C 164.104,501.809 164.77,504.143 164.5,507.5C 163.448,507.351 162.448,507.517 161.5,508C 162.451,508.718 162.617,509.551 162,510.5C 160.883,509.051 160.216,507.384 160,505.5C 159.308,506.025 158.808,506.692 158.5,507.5C 159.921,510.956 158.755,513.29 155,514.5C 154.847,512.421 154.014,510.421 152.5,508.5C 153.687,508.446 155.02,508.113 156.5,507.5C 154.178,506.064 153.511,504.23 154.5,502C 153.833,501.333 153.167,501.333 152.5,502C 152.201,503.32 152.034,504.82 152,506.5C 151.25,507.126 150.416,507.626 149.5,508C 150.451,508.718 150.617,509.551 150,510.5C 149.346,509.304 148.846,509.304 148.5,510.5C 149.167,511.167 149.833,511.833 150.5,512.5C 148.993,513.739 147.826,513.405 147,511.5C 145.969,512.7 145.135,514.034 144.5,515.5C 145.845,517.323 146.345,519.323 146,521.5C 144.667,520.167 143.333,520.167 142,521.5C 140.064,520.847 138.231,519.681 136.5,518C 139.03,518.335 141.364,518.168 143.5,517.5C 142.833,516.833 142.167,516.167 141.5,515.5C 142.485,513.902 142.651,512.235 142,510.5C 141.215,512.286 140.049,513.786 138.5,515C 138.833,515.333 139.167,515.667 139.5,516C 135.973,516.882 135.307,516.382 137.5,514.5C 135.282,513.812 133.782,514.812 133,517.5C 132.826,512.316 132.326,507.316 131.5,502.5C 131.918,493.149 132.584,483.816 133.5,474.5C 133.709,473.006 134.376,471.839 135.5,471C 135.167,470.667 134.833,470.333 134.5,470C 135.744,469.544 136.577,470.044 137,471.5C 137.5,471 138,470.5 138.5,470C 137.692,468.294 136.359,467.461 134.5,467.5C 134.802,464.941 134.468,462.607 133.5,460.5C 135.162,447.023 137.662,433.689 141,420.5C 165.43,332.566 215.097,262.899 290,211.5C 292.863,220.425 295.53,229.425 298,238.5C 307.045,265.672 321.879,289.005 342.5,308.5 Z"/></g>
<g><path style="opacity:1" fill="#f9dbca" d="M 448.5,255.5 C 445.484,256.059 442.484,256.725 439.5,257.5C 437.465,242.699 434.798,228.032 431.5,213.5C 434.122,219.248 435.956,225.915 437,233.5C 438.444,240.77 439.277,248.104 439.5,255.5C 442.696,254.888 445.696,254.888 448.5,255.5 Z"/></g>
<g><path style="opacity:1" fill="#512716" d="M 475.5,265.5 C 473.167,265.5 470.833,265.5 468.5,265.5C 467.127,265.657 465.793,265.49 464.5,265C 473.801,263.651 483.134,263.317 492.5,264C 486.652,264.173 480.985,264.673 475.5,265.5 Z"/></g>
<g><path style="opacity:1" fill="#f7d7c6" d="M 665.5,247.5 C 666.043,247.56 666.376,247.893 666.5,248.5C 658.51,268.875 646.843,286.541 631.5,301.5C 645.846,285.491 657.18,267.491 665.5,247.5 Z"/></g>
<g><path style="opacity:1" fill="#e1b489" d="M 850.5,210.5 C 851.66,223.327 851.827,236.327 851,249.5C 850.365,279.091 839.199,303.758 817.5,323.5C 814.494,325.67 811.161,327.336 807.5,328.5C 793.487,321.774 778.82,316.94 763.5,314C 761.859,312.871 760.859,311.371 760.5,309.5C 785.171,314.443 806.005,307.443 823,288.5C 840.779,265.67 849.946,239.67 850.5,210.5 Z"/></g>
<g><path style="opacity:1" fill="#fee0ab" d="M 692.5,303.5 C 694.167,303.5 695.833,303.5 697.5,303.5C 697.061,313.393 701.728,319.06 711.5,320.5C 712.747,322.006 712.747,323.506 711.5,325C 707.715,325.373 704.215,326.539 701,328.5C 699.168,332.321 697.834,336.321 697,340.5C 695.333,341.833 693.667,341.833 692,340.5C 691.675,331.518 687.175,326.351 678.5,325C 675.833,323.333 675.833,321.667 678.5,320C 683.777,320.281 687.61,318.114 690,313.5C 690.776,310.111 691.609,306.778 692.5,303.5 Z"/></g>
<g><path style="opacity:1" fill="#6c4938" d="M 232.5,299.5 C 236.192,298.971 239.358,299.971 242,302.5C 244.802,309.903 247.802,317.236 251,324.5C 252.458,326.96 254.291,329.127 256.5,331C 263.105,335.136 270.105,338.469 277.5,341C 282.436,344.958 282.769,349.291 278.5,354C 269.507,356.577 261.673,361.077 255,367.5C 252.497,370.502 250.497,373.835 249,377.5C 247.641,382.938 245.974,388.272 244,393.5C 239.667,398.833 235.333,398.833 231,393.5C 228.483,384.6 224.816,376.267 220,368.5C 217.78,365.979 215.28,363.812 212.5,362C 206.689,359.925 201.022,357.592 195.5,355C 191.885,351.341 191.552,347.341 194.5,343C 200.799,340.007 207.132,337.007 213.5,334C 221.631,326.239 226.464,316.739 228,305.5C 229.332,303.34 230.832,301.34 232.5,299.5 Z"/></g>
<g><path style="opacity:1" fill="#fde0ae" d="M 235.5,319.5 C 238.306,324.437 241.139,329.437 244,334.5C 249.369,340.1 255.535,344.6 262.5,348C 250.679,354.439 242.179,363.939 237,376.5C 232.375,363.541 223.875,354.041 211.5,348C 224.045,342.291 232.045,332.791 235.5,319.5 Z"/></g>
<g><path style="opacity:1" fill="#694738" d="M 389.5,468.5 C 388.421,466.457 386.754,465.124 384.5,464.5C 372.754,447.536 374.088,431.703 388.5,417C 407.261,409.705 419.428,415.871 425,435.5C 426.466,447.438 422.966,457.605 414.5,466C 406.559,470.888 398.226,471.722 389.5,468.5 Z"/></g>
<g><path style="opacity:1" fill="#f9f2ea" d="M 401.5,424.5 C 409.294,425.252 410.961,428.752 406.5,435C 400,436.5 397.5,434 399,427.5C 399.698,426.309 400.531,425.309 401.5,424.5 Z"/></g>
<g><path style="opacity:1" fill="#684637" d="M 567.5,408.5 C 583.697,408.52 593.531,416.52 597,432.5C 599.002,444.322 595.502,454.155 586.5,462C 567.318,469.659 554.818,463.493 549,443.5C 545.774,426.609 551.941,414.942 567.5,408.5 Z"/></g>
<g><path style="opacity:1" fill="#faf4ec" d="M 566.5,421.5 C 573.263,421.547 575.263,424.714 572.5,431C 567.601,433.55 564.267,432.216 562.5,427C 563.007,424.455 564.341,422.621 566.5,421.5 Z"/></g>
<g><path style="opacity:1" fill="#fedfaa" d="M 232.5,476.5 C 232.703,478.39 232.037,479.89 230.5,481C 217.383,482.783 210.55,490.283 210,503.5C 207.822,507.065 205.156,507.399 202,504.5C 200.715,490.049 192.882,482.049 178.5,480.5C 178.178,478.278 178.845,476.444 180.5,475C 194.823,474.344 201.989,466.844 202,452.5C 204.367,449.068 207.034,448.735 210,451.5C 210.468,464.297 216.968,471.797 229.5,474C 230.373,475.045 231.373,475.878 232.5,476.5 Z"/></g>
<g><path style="opacity:1" fill="#ddb187" d="M 767.5,416.5 C 766.092,418.31 764.925,420.31 764,422.5C 750.07,464.711 735.903,506.878 721.5,549C 722.056,550.011 722.722,550.844 723.5,551.5C 710.275,555.228 702.442,563.895 700,577.5C 689.646,585.562 685.313,596.229 687,609.5C 680.063,624.556 682.896,637.389 695.5,648C 695.011,649.138 694.678,650.305 694.5,651.5C 693.209,650.458 693.209,649.292 694.5,648C 691,645.833 688.167,643 686,639.5C 671.148,681.541 657.148,723.874 644,766.5C 634.214,795.046 623.38,823.046 611.5,850.5C 610.399,851.598 609.066,851.765 607.5,851C 604.246,848.658 602.412,845.491 602,841.5C 599.595,831.621 600.262,821.954 604,812.5C 627.758,792.648 643.091,767.648 650,737.5C 653.492,715.773 650.992,694.773 642.5,674.5C 643.325,672.199 643.992,669.865 644.5,667.5C 652.551,640.708 661.217,614.042 670.5,587.5C 690.765,527.205 710.932,466.872 731,406.5C 732.388,405.446 733.888,405.28 735.5,406C 746.294,409.209 756.96,412.709 767.5,416.5 Z"/></g>
<g><path style="opacity:1" fill="#fec5b4" d="M 883.5,457.5 C 884.232,463.824 884.899,470.158 885.5,476.5C 884.838,478.304 884.505,480.304 884.5,482.5C 885.082,500.329 885.749,517.995 886.5,535.5C 886.5,537.167 886.5,538.833 886.5,540.5C 881.575,599.112 864.075,653.778 834,704.5C 763.894,815.666 663.06,876.999 531.5,888.5C 497.171,889.757 463.171,887.09 429.5,880.5C 403.622,874.763 378.622,866.43 354.5,855.5C 341.595,848.86 328.262,841.694 314.5,834C 301.096,825.641 288.096,816.808 275.5,807.5C 268.728,802.572 262.061,797.406 255.5,792C 182.997,725.83 141.664,643.663 131.5,545.5C 132.166,541.316 132.833,536.982 133.5,532.5C 137.11,533.847 137.443,533.18 134.5,530.5C 137.131,528.995 136.797,528.329 133.5,528.5C 133.307,532.449 132.807,532.449 132,528.5C 131.5,519.84 131.334,511.173 131.5,502.5C 132.326,507.316 132.826,512.316 133,517.5C 133.782,514.812 135.282,513.812 137.5,514.5C 135.307,516.382 135.973,516.882 139.5,516C 139.167,515.667 138.833,515.333 138.5,515C 140.049,513.786 141.215,512.286 142,510.5C 142.651,512.235 142.485,513.902 141.5,515.5C 142.167,516.167 142.833,516.833 143.5,517.5C 141.364,518.168 139.03,518.335 136.5,518C 138.231,519.681 140.064,520.847 142,521.5C 143.333,520.167 144.667,520.167 146,521.5C 146.345,519.323 145.845,517.323 144.5,515.5C 145.135,514.034 145.969,512.7 147,511.5C 147.826,513.405 148.993,513.739 150.5,512.5C 149.833,511.833 149.167,511.167 148.5,510.5C 148.846,509.304 149.346,509.304 150,510.5C 150.617,509.551 150.451,508.718 149.5,508C 150.416,507.626 151.25,507.126 152,506.5C 152.034,504.82 152.201,503.32 152.5,502C 153.167,501.333 153.833,501.333 154.5,502C 153.511,504.23 154.178,506.064 156.5,507.5C 155.02,508.113 153.687,508.446 152.5,508.5C 154.014,510.421 154.847,512.421 155,514.5C 158.755,513.29 159.921,510.956 158.5,507.5C 158.808,506.692 159.308,506.025 160,505.5C 160.216,507.384 160.883,509.051 162,510.5C 162.617,509.551 162.451,508.718 161.5,508C 162.448,507.517 163.448,507.351 164.5,507.5C 164.77,504.143 164.104,501.809 162.5,500.5C 164.39,500.703 165.89,500.037 167,498.5C 168.507,499.505 169.673,500.838 170.5,502.5C 170.833,502.167 171.167,501.833 171.5,501.5C 170.313,499.79 170.646,498.29 172.5,497C 172.316,494.61 172.316,492.276 172.5,490C 174,489.167 175.167,488 176,486.5C 176.419,487.672 177.085,488.672 178,489.5C 179.113,488.24 179.28,487.073 178.5,486C 180.878,485.026 180.544,484.359 177.5,484C 178.337,482.989 178.67,481.822 178.5,480.5C 192.882,482.049 200.715,490.049 202,504.5C 205.156,507.399 207.822,507.065 210,503.5C 210.55,490.283 217.383,482.783 230.5,481C 232.037,479.89 232.703,478.39 232.5,476.5C 233.29,477.609 233.79,478.942 234,480.5C 235.016,479.366 235.683,479.699 236,481.5C 236.496,479.965 236.33,478.465 235.5,477C 235.878,475.365 236.544,473.865 237.5,472.5C 238.83,474.347 238.497,475.847 236.5,477C 238.099,478.066 239.099,479.566 239.5,481.5C 238.833,481.833 238.167,482.167 237.5,482.5C 239.073,484.836 240.406,484.836 241.5,482.5C 240.835,480.899 240.501,479.399 240.5,478C 241.711,477.213 242.711,476.546 243.5,476C 243.167,475.5 242.833,475 242.5,474.5C 241.549,475.326 240.549,475.492 239.5,475C 241.285,473.837 243.285,473.17 245.5,473C 243.754,472.529 242.087,471.862 240.5,471C 241.167,470.667 241.833,470.333 242.5,470C 241.167,469.333 240.167,468.333 239.5,467C 241.5,466.667 243.5,466.333 245.5,466C 239.84,465.115 239.34,462.615 244,458.5C 245.465,460.915 247.632,461.915 250.5,461.5C 249.846,456.848 251.18,456.181 254.5,459.5C 251.236,462.066 248.236,464.899 245.5,468C 248.001,469.418 247.668,470.418 244.5,471C 249.328,471.606 249.328,472.939 244.5,475C 245.5,475.333 246.5,475.667 247.5,476C 245.405,476.556 245.238,477.056 247,477.5C 249.918,476.506 250.084,477.006 247.5,479C 249.723,479.652 250.89,481.152 251,483.5C 251.703,481.22 252.869,479.22 254.5,477.5C 253.089,475.983 253.256,474.649 255,473.5C 255.615,475.116 256.615,476.449 258,477.5C 258.833,476 260,474.833 261.5,474C 261,473.5 260.5,473 260,472.5C 258.816,474.654 257.65,474.32 256.5,471.5C 256.846,470.304 257.346,470.304 258,471.5C 258,470.167 258,468.833 258,467.5C 258.667,468.833 259.333,468.833 260,467.5C 260.707,465.919 261.54,464.419 262.5,463C 262.167,462.667 261.833,462.333 261.5,462C 268.158,461.5 274.825,461.334 281.5,461.5C 281.165,466.278 281.498,470.278 282.5,473.5C 282.833,473.5 283.167,473.5 283.5,473.5C 283.808,475.924 283.474,478.257 282.5,480.5C 274.97,482.06 268.137,485.06 262,489.5C 260.377,494.696 262.21,497.696 267.5,498.5C 273.708,496.597 279.875,494.597 286,492.5C 294.392,514.06 307.892,531.727 326.5,545.5C 308.089,564.652 296.256,587.319 291,613.5C 288.668,630.501 292.168,646.167 301.5,660.5C 280.496,679.824 266.662,703.49 260,731.5C 255.784,764.239 268.284,788.072 297.5,803C 303.789,805.646 310.122,807.812 316.5,809.5C 315.761,809.369 315.094,809.536 314.5,810C 317.753,811.036 321.086,811.703 324.5,812C 333.219,812.819 339.886,812.652 344.5,811.5C 357.652,808.782 370.985,806.282 384.5,804C 391.914,803.11 399.247,803.443 406.5,805C 408.286,805.785 409.786,806.951 411,808.5C 411.604,815.919 411.104,823.253 409.5,830.5C 410.406,846.921 418.739,857.754 434.5,863C 446.327,866.061 458.327,867.061 470.5,866C 478.184,865.248 485.851,864.414 493.5,863.5C 527.555,857.764 558.721,845.097 587,825.5C 586.139,836.126 588.139,846.126 593,855.5C 600.234,863.596 609.068,865.762 619.5,862C 628.403,857.71 635.237,851.21 640,842.5C 646.627,831.115 651.794,819.115 655.5,806.5C 696.594,811.837 726.427,796.171 745,759.5C 756.914,728.343 751.081,701.177 727.5,678C 720.215,672.524 712.215,668.357 703.5,665.5C 704.684,661.443 706.351,657.61 708.5,654C 732.842,654.953 750.008,644.453 760,622.5C 767.934,603.796 767.267,585.463 758,567.5C 754.598,563.274 751.098,559.274 747.5,555.5C 761.437,515.417 774.604,475.083 787,434.5C 790.433,429.403 793.433,424.069 796,418.5C 796.333,415.5 796.667,412.5 797,409.5C 802.965,387.975 808.465,366.308 813.5,344.5C 818.495,340.507 823.495,336.507 828.5,332.5C 830.546,330.721 832.713,329.054 835,327.5C 859.894,367.614 876.061,410.948 883.5,457.5 Z"/></g>
<g><path style="opacity:1" fill="#fedea9" d="M 825.5,412.5 C 827.262,412.357 828.929,412.691 830.5,413.5C 831.311,422.352 833.811,430.686 838,438.5C 843.816,445.658 851.316,449.491 860.5,450C 862.602,451.733 862.935,453.733 861.5,456C 846.609,455.878 837.109,463.045 833,477.5C 832.667,481.5 832.333,485.5 832,489.5C 830.64,492.551 828.473,493.218 825.5,491.5C 825.872,477.744 820.538,466.911 809.5,459C 804.388,456.987 799.055,455.987 793.5,456C 792.167,454 792.167,452 793.5,450C 815.436,448.391 825.603,436.558 824,414.5C 824.717,413.956 825.217,413.289 825.5,412.5 Z"/></g>
<g><path style="opacity:1" fill="#bb8a79" d="M 280.5,459.5 C 281.5,459.5 282.5,459.5 283.5,459.5C 283.5,464.167 283.5,468.833 283.5,473.5C 283.167,473.5 282.833,473.5 282.5,473.5C 283.015,468.52 282.348,463.854 280.5,459.5 Z"/></g>
<g><path style="opacity:1" fill="#fec0af" d="M 604.5,448.5 C 632.869,449.028 643.702,463.028 637,490.5C 629.455,502.095 618.622,507.762 604.5,507.5C 587.412,506.41 577.745,497.41 575.5,480.5C 575.427,471.796 579.427,465.963 587.5,463C 591.548,459.554 594.882,455.554 597.5,451C 599.927,450.098 602.26,449.264 604.5,448.5 Z"/></g>
<g><path style="opacity:1" fill="#573729" d="M 886.5,540.5 C 886.5,538.833 886.5,537.167 886.5,535.5C 888.008,515.797 887.674,496.13 885.5,476.5C 884.899,470.158 884.232,463.824 883.5,457.5C 885.391,461.66 886.391,467.327 886.5,474.5C 888.592,474.439 890.092,473.439 891,471.5C 896.613,473.954 896.613,476.62 891,479.5C 890.911,477.887 891.745,476.72 893.5,476C 891.578,472.654 890.911,472.654 891.5,476C 890.216,476.684 889.049,476.517 888,475.5C 888.145,495.156 888.478,514.823 889,534.5C 889.333,533.833 889.667,533.167 890,532.5C 891.824,534.726 893.657,536.226 895.5,537C 892.881,536.917 890.214,536.75 887.5,536.5C 887.665,539.85 887.498,543.183 887,546.5C 886.505,544.527 886.338,542.527 886.5,540.5 Z"/></g>
<g><path style="opacity:1" fill="#fec0af" d="M 384.5,464.5 C 386.754,465.124 388.421,466.457 389.5,468.5C 396.075,475.524 398.242,483.857 396,493.5C 392.859,503.307 386.359,509.807 376.5,513C 360.307,517.048 347.141,512.548 337,499.5C 330.708,485.504 333.208,473.337 344.5,463C 356.172,456.521 368.172,455.854 380.5,461C 381.705,462.376 383.038,463.542 384.5,464.5 Z"/></g>
<g><path style="opacity:1" fill="#6f4a38" d="M 474.5,444.5 C 482.507,444.334 490.507,444.5 498.5,445C 500.286,445.785 501.786,446.951 503,448.5C 504.908,458.086 501.075,463.753 491.5,465.5C 491.438,472.376 493.438,478.542 497.5,484C 506.958,487.964 514.291,485.464 519.5,476.5C 523.055,473.736 525.888,474.402 528,478.5C 528.79,481.634 528.457,484.634 527,487.5C 516.425,499.147 504.258,501.314 490.5,494C 489.213,492.59 488.046,491.09 487,489.5C 479.941,498.74 470.774,501.573 459.5,498C 453.405,495.709 448.571,491.876 445,486.5C 443.31,481.542 444.977,478.542 450,477.5C 454.523,481.002 459.357,484.168 464.5,487C 471.034,488.493 475.867,486.327 479,480.5C 480.25,475.58 480.75,470.58 480.5,465.5C 470.842,464.352 466.676,459.019 468,449.5C 469.926,447.461 472.093,445.794 474.5,444.5 Z"/></g>
<g><path style="opacity:1" fill="#6b4838" d="M 350.5,298.5 C 353.1,299.919 355.6,301.585 358,303.5C 360.071,305.455 360.738,307.788 360,310.5C 352.295,318.537 344.961,326.87 338,335.5C 320.375,364.706 309.709,396.373 306,430.5C 302.615,436.488 300.115,442.821 298.5,449.5C 301.28,451.117 304.28,452.284 307.5,453C 310.207,454.864 311.041,457.364 310,460.5C 306.344,463.67 302.178,464.337 297.5,462.5C 296.339,466.795 296.172,471.129 297,475.5C 300.51,477.219 304.344,478.052 308.5,478C 312.092,480.971 312.425,484.304 309.5,488C 306.556,488.97 303.556,489.804 300.5,490.5C 302.331,496.166 304.831,501.5 308,506.5C 317.579,519.744 329.413,530.577 343.5,539C 355.624,545.15 368.124,550.317 381,554.5C 383.227,562.456 380.06,566.123 371.5,565.5C 360.586,562.465 350.086,558.132 340,552.5C 336.888,555.101 334.388,558.101 332.5,561.5C 322.439,571.931 314.606,583.931 309,597.5C 303.77,609.853 302.604,622.52 305.5,635.5C 308.915,650.086 317.582,660.253 331.5,666C 343.323,671.206 355.657,674.372 368.5,675.5C 366.052,676.473 363.385,676.806 360.5,676.5C 359.316,679.564 358.316,682.731 357.5,686C 359.623,687.194 361.957,687.86 364.5,688C 363.207,688.49 361.873,688.657 360.5,688.5C 343.14,686.382 327.14,680.715 312.5,671.5C 312.103,670.475 311.437,670.308 310.5,671C 291.407,689.014 278.907,710.847 273,736.5C 271.381,765.747 284.548,784.914 312.5,794C 325.688,797.679 339.022,798.346 352.5,796C 363.527,794.092 374.527,792.092 385.5,790C 396.44,788.178 406.774,789.844 416.5,795C 422.435,799.537 425.435,805.537 425.5,813C 417.238,837.504 425.905,850.504 451.5,852C 464.532,852.442 477.532,851.942 490.5,850.5C 491.239,850.369 491.906,850.536 492.5,851C 488.176,851.87 483.842,852.703 479.5,853.5C 482.449,856.093 482.116,858.093 478.5,859.5C 478.687,858.183 478.02,856.85 476.5,855.5C 474.632,855.946 472.799,856.279 471,856.5C 470.833,856.167 470.667,855.833 470.5,855.5C 471.729,854.719 473.062,854.219 474.5,854C 471.5,853.333 468.5,853.333 465.5,854C 466.184,855.693 467.184,857.193 468.5,858.5C 467.91,859.799 466.91,860.632 465.5,861C 468.007,863.485 469.507,862.985 470,859.5C 470.318,861.061 471.151,862.228 472.5,863C 471.294,864.018 471.627,864.518 473.5,864.5C 479.156,863.779 484.822,863.112 490.5,862.5C 491.726,862.52 492.726,862.853 493.5,863.5C 485.851,864.414 478.184,865.248 470.5,866C 458.327,867.061 446.327,866.061 434.5,863C 418.739,857.754 410.406,846.921 409.5,830.5C 411.104,823.253 411.604,815.919 411,808.5C 409.786,806.951 408.286,805.785 406.5,805C 399.247,803.443 391.914,803.11 384.5,804C 370.985,806.282 357.652,808.782 344.5,811.5C 335.085,811.792 325.752,811.125 316.5,809.5C 310.122,807.812 303.789,805.646 297.5,803C 268.284,788.072 255.784,764.239 260,731.5C 266.662,703.49 280.496,679.824 301.5,660.5C 292.168,646.167 288.668,630.501 291,613.5C 296.256,587.319 308.089,564.652 326.5,545.5C 307.892,531.727 294.392,514.06 286,492.5C 279.875,494.597 273.708,496.597 267.5,498.5C 262.21,497.696 260.377,494.696 262,489.5C 268.137,485.06 274.97,482.06 282.5,480.5C 283.474,478.257 283.808,475.924 283.5,473.5C 283.5,468.833 283.5,464.167 283.5,459.5C 282.5,459.5 281.5,459.5 280.5,459.5C 274.465,459.594 268.465,459.761 262.5,460C 257.613,456.775 257.28,453.108 261.5,449C 269.415,447.599 277.415,447.099 285.5,447.5C 286.774,439.734 289.274,432.4 293,425.5C 295.209,410.999 298.209,396.666 302,382.5C 309.552,354.383 323.052,329.716 342.5,308.5C 342.489,306.983 341.823,305.816 340.5,305C 341.5,304.667 342.5,304.333 343.5,304C 342.354,303.355 341.354,302.522 340.5,301.5C 339.304,301.846 339.304,302.346 340.5,303C 337.224,301.763 334.391,299.597 332,296.5C 331.544,295.256 332.044,294.423 333.5,294C 333.167,293.667 332.833,293.333 332.5,293C 333.744,292.544 334.577,293.044 335,294.5C 335.826,292.595 336.993,292.261 338.5,293.5C 337.263,294.281 336.263,295.281 335.5,296.5C 336,296.833 336.5,297.167 337,297.5C 338.735,296.318 339.735,294.651 340,292.5C 341,293.833 342,293.833 343,292.5C 344.824,293.749 344.657,294.915 342.5,296C 343.939,296.991 344.939,298.324 345.5,300C 346.167,300.667 346.833,300.667 347.5,300C 345.789,298.867 345.289,297.367 346,295.5C 346.908,297.439 348.408,298.439 350.5,298.5 Z"/></g>
<g><path style="opacity:1" fill="#4d2e20" d="M 131.5,470.5 C 130.882,477.817 130.549,485.151 130.5,492.5C 129.669,503.993 129.169,515.659 129,527.5C 128.809,509.452 128.643,491.452 128.5,473.5C 129.863,472.107 130.696,470.441 131,468.5C 131.464,469.094 131.631,469.761 131.5,470.5 Z"/></g>
<g><path style="opacity:1" fill="#f3cebb" d="M 885.5,476.5 C 887.674,496.13 888.008,515.797 886.5,535.5C 885.749,517.995 885.082,500.329 884.5,482.5C 884.505,480.304 884.838,478.304 885.5,476.5 Z"/></g>
<g><path style="opacity:1" fill="#fbd4c2" d="M 133.5,460.5 C 134.468,462.607 134.802,464.941 134.5,467.5C 136.359,467.461 137.692,468.294 138.5,470C 138,470.5 137.5,471 137,471.5C 136.577,470.044 135.744,469.544 134.5,470C 134.833,470.333 135.167,470.667 135.5,471C 134.376,471.839 133.709,473.006 133.5,474.5C 132.584,483.816 131.918,493.149 131.5,502.5C 131.334,511.173 131.5,519.84 132,528.5C 132.807,532.449 133.307,532.449 133.5,528.5C 136.797,528.329 137.131,528.995 134.5,530.5C 137.443,533.18 137.11,533.847 133.5,532.5C 132.833,536.982 132.166,541.316 131.5,545.5C 130.619,527.85 130.286,510.183 130.5,492.5C 130.549,485.151 130.882,477.817 131.5,470.5C 132.323,467.316 132.99,463.983 133.5,460.5 Z"/></g>
<g><path style="opacity:1" fill="#f3d9c2" d="M 371.5,565.5 C 373.631,566.314 375.964,566.814 378.5,567C 377,567.167 375.5,567.333 374,567.5C 359.793,566.084 345.959,564.084 332.5,561.5C 334.388,558.101 336.888,555.101 340,552.5C 350.086,558.132 360.586,562.465 371.5,565.5 Z"/></g>
<g><path style="opacity:1" fill="#f1d6bf" d="M 374.5,665.5 C 387.478,675.808 385.478,679.141 368.5,675.5C 355.657,674.372 343.323,671.206 331.5,666C 317.582,660.253 308.915,650.086 305.5,635.5C 306.268,634.737 306.768,633.737 307,632.5C 310.597,637.219 314.763,641.386 319.5,645C 336.373,655.639 354.706,662.473 374.5,665.5 Z"/></g>
<g><path style="opacity:1" fill="#714c3a" d="M 670.5,587.5 C 661.217,614.042 652.551,640.708 644.5,667.5C 644.631,666.761 644.464,666.094 644,665.5C 642.872,667.345 642.372,669.345 642.5,671.5C 641.127,671.343 639.793,671.51 638.5,672C 639.466,674.401 639.466,677.067 638.5,680C 639.167,680.333 639.833,680.667 640.5,681C 635.268,681.31 634.602,682.81 638.5,685.5C 638.291,686.086 637.957,686.586 637.5,687C 635.862,686.758 634.362,685.925 633,684.5C 632.576,681.975 631.41,679.975 629.5,678.5C 614.474,651.649 592.474,632.815 563.5,622C 553.147,617.715 542.48,614.548 531.5,612.5C 508.672,608.669 485.672,607.503 462.5,609C 451.008,610.137 439.675,612.137 428.5,615C 436.145,625.699 438.812,637.532 436.5,650.5C 434.568,655.945 432.235,661.278 429.5,666.5C 419.152,679.132 405.818,686.632 389.5,689C 379.658,689.825 369.991,689.658 360.5,688.5C 361.873,688.657 363.207,688.49 364.5,688C 361.957,687.86 359.623,687.194 357.5,686C 358.316,682.731 359.316,679.564 360.5,676.5C 363.385,676.806 366.052,676.473 368.5,675.5C 385.478,679.141 387.478,675.808 374.5,665.5C 371.174,658.988 373.174,655.488 380.5,655C 386.876,659.709 392.209,665.375 396.5,672C 402.948,671.268 408.282,668.268 412.5,663C 408,657.833 403.5,652.667 399,647.5C 397.756,639.41 400.923,636.91 408.5,640C 412.689,644.221 416.522,648.721 420,653.5C 425.182,642.363 424.182,631.697 417,621.5C 406.478,609.485 393.311,601.985 377.5,599C 374.595,595.626 374.928,592.626 378.5,590C 393.573,589.787 407.073,594.287 419,603.5C 457.813,593.277 496.979,591.777 536.5,599C 570.579,606.117 599.746,621.95 624,646.5C 621.992,636.131 619.492,625.798 616.5,615.5C 616.39,613.626 617.056,612.126 618.5,611C 621.956,609.877 624.79,610.71 627,613.5C 632.196,623.946 635.696,634.946 637.5,646.5C 645.469,620.263 653.803,594.263 662.5,568.5C 662.435,568.938 662.601,569.272 663,569.5C 663.626,567.009 664.459,567.009 665.5,569.5C 667.425,569.163 668.925,567.83 670,565.5C 671.688,566.325 671.855,567.325 670.5,568.5C 671.888,570.109 672.888,571.942 673.5,574C 672.167,578 670.833,582 669.5,586C 669.57,586.765 669.903,587.265 670.5,587.5 Z"/></g>
<g><path style="opacity:1" fill="#fec0ae" d="M 510.5,625.5 C 525.121,635.653 528.288,648.653 520,664.5C 510.074,675.705 497.574,680.205 482.5,678C 467.045,676.489 457.711,668.323 454.5,653.5C 455.951,637.202 464.618,626.702 480.5,622C 490.848,620.627 500.848,621.794 510.5,625.5 Z"/></g>
<g><path style="opacity:1" fill="#feddbe" d="M 531.5,612.5 C 525.951,612.534 520.284,612.534 514.5,612.5C 511.836,615.357 512.17,617.857 515.5,620C 514.167,620.333 512.833,620.667 511.5,621C 512.978,622.193 514.312,622.693 515.5,622.5C 514.295,624.138 512.962,624.471 511.5,623.5C 510.702,623.957 510.369,624.624 510.5,625.5C 500.848,621.794 490.848,620.627 480.5,622C 464.618,626.702 455.951,637.202 454.5,653.5C 454.649,654.552 454.483,655.552 454,656.5C 453.907,653.993 453.074,651.826 451.5,650C 452.167,649.667 452.833,649.333 453.5,649C 453.201,647.68 453.034,646.18 453,644.5C 451.308,646.822 449.474,647.322 447.5,646C 449.992,644.751 449.825,643.584 447,642.5C 444.199,644.778 441.865,647.445 440,650.5C 439.186,648.098 439.353,645.765 440.5,643.5C 441.842,644.902 442.676,644.569 443,642.5C 443.718,643.451 444.551,643.617 445.5,643C 443.763,640.713 441.43,640.213 438.5,641.5C 438.837,645.308 438.337,648.974 437,652.5C 436.536,651.906 436.369,651.239 436.5,650.5C 438.812,637.532 436.145,625.699 428.5,615C 439.675,612.137 451.008,610.137 462.5,609C 485.672,607.503 508.672,608.669 531.5,612.5 Z"/></g>
<g><path style="opacity:1" fill="#e6b99d" d="M 312.5,671.5 C 327.14,680.715 343.14,686.382 360.5,688.5C 369.991,689.658 379.658,689.825 389.5,689C 405.818,686.632 419.152,679.132 429.5,666.5C 430.885,665.426 432.051,664.093 433,662.5C 431.851,670.375 428.017,676.875 421.5,682C 402.337,695.835 381.004,700.502 357.5,696C 339.532,692.849 323.866,685.182 310.5,673C 311.044,672.283 311.711,671.783 312.5,671.5 Z"/></g>
<g><path style="opacity:1" fill="#c89870" d="M 694.5,651.5 C 676.11,705.836 657.61,760.17 639,814.5C 634.271,826.301 627.771,836.968 619.5,846.5C 617.09,848.372 614.423,849.705 611.5,850.5C 623.38,823.046 634.214,795.046 644,766.5C 657.148,723.874 671.148,681.541 686,639.5C 688.167,643 691,645.833 694.5,648C 693.209,649.292 693.209,650.458 694.5,651.5 Z"/></g>
<g><path style="opacity:1" fill="#6d4a39" d="M 755.5,301.5 C 756.653,304.47 758.32,307.137 760.5,309.5C 760.859,311.371 761.859,312.871 763.5,314C 778.82,316.94 793.487,321.774 807.5,328.5C 811.161,327.336 814.494,325.67 817.5,323.5C 821.067,321.443 824.234,318.777 827,315.5C 827.773,318.211 828.94,320.711 830.5,323C 829.888,325.058 828.888,326.891 827.5,328.5C 828.262,328.911 829.262,329.077 830.5,329C 829.5,330 828.5,331 827.5,332C 827.728,332.399 828.062,332.565 828.5,332.5C 823.495,336.507 818.495,340.507 813.5,344.5C 808.465,366.308 802.965,387.975 797,409.5C 796.667,412.5 796.333,415.5 796,418.5C 793.433,424.069 790.433,429.403 787,434.5C 774.604,475.083 761.437,515.417 747.5,555.5C 751.098,559.274 754.598,563.274 758,567.5C 767.267,585.463 767.934,603.796 760,622.5C 750.008,644.453 732.842,654.953 708.5,654C 706.351,657.61 704.684,661.443 703.5,665.5C 712.215,668.357 720.215,672.524 727.5,678C 751.081,701.177 756.914,728.343 745,759.5C 726.427,796.171 696.594,811.837 655.5,806.5C 651.794,819.115 646.627,831.115 640,842.5C 635.237,851.21 628.403,857.71 619.5,862C 609.068,865.762 600.234,863.596 593,855.5C 588.139,846.126 586.139,836.126 587,825.5C 558.721,845.097 527.555,857.764 493.5,863.5C 492.726,862.853 491.726,862.52 490.5,862.5C 484.822,863.112 479.156,863.779 473.5,864.5C 471.627,864.518 471.294,864.018 472.5,863C 471.151,862.228 470.318,861.061 470,859.5C 469.507,862.985 468.007,863.485 465.5,861C 466.91,860.632 467.91,859.799 468.5,858.5C 467.184,857.193 466.184,855.693 465.5,854C 468.5,853.333 471.5,853.333 474.5,854C 473.062,854.219 471.729,854.719 470.5,855.5C 470.667,855.833 470.833,856.167 471,856.5C 472.799,856.279 474.632,855.946 476.5,855.5C 478.02,856.85 478.687,858.183 478.5,859.5C 482.116,858.093 482.449,856.093 479.5,853.5C 483.842,852.703 488.176,851.87 492.5,851C 491.906,850.536 491.239,850.369 490.5,850.5C 527.364,843.567 560.697,828.734 590.5,806C 615.61,785.95 631.11,760.117 637,728.5C 639.088,711.115 636.588,694.449 629.5,678.5C 631.41,679.975 632.576,681.975 633,684.5C 634.362,685.925 635.862,686.758 637.5,687C 637.957,686.586 638.291,686.086 638.5,685.5C 634.602,682.81 635.268,681.31 640.5,681C 639.833,680.667 639.167,680.333 638.5,680C 639.466,677.067 639.466,674.401 638.5,672C 639.793,671.51 641.127,671.343 642.5,671.5C 642.372,669.345 642.872,667.345 644,665.5C 644.464,666.094 644.631,666.761 644.5,667.5C 643.992,669.865 643.325,672.199 642.5,674.5C 650.992,694.773 653.492,715.773 650,737.5C 643.091,767.648 627.758,792.648 604,812.5C 600.262,821.954 599.595,831.621 602,841.5C 602.412,845.491 604.246,848.658 607.5,851C 609.066,851.765 610.399,851.598 611.5,850.5C 614.423,849.705 617.09,848.372 619.5,846.5C 627.771,836.968 634.271,826.301 639,814.5C 657.61,760.17 676.11,705.836 694.5,651.5C 694.678,650.305 695.011,649.138 695.5,648C 682.896,637.389 680.063,624.556 687,609.5C 685.313,596.229 689.646,585.562 700,577.5C 702.442,563.895 710.275,555.228 723.5,551.5C 727.337,550.866 731.17,550.199 735,549.5C 749.885,506.794 764.385,463.96 778.5,421C 774.959,419.208 771.292,417.708 767.5,416.5C 756.96,412.709 746.294,409.209 735.5,406C 733.888,405.28 732.388,405.446 731,406.5C 710.932,466.872 690.765,527.205 670.5,587.5C 669.903,587.265 669.57,586.765 669.5,586C 670.833,582 672.167,578 673.5,574C 672.888,571.942 671.888,570.109 670.5,568.5C 671.855,567.325 671.688,566.325 670,565.5C 668.925,567.83 667.425,569.163 665.5,569.5C 664.459,567.009 663.626,567.009 663,569.5C 662.601,569.272 662.435,568.938 662.5,568.5C 662.855,565.933 663.521,563.433 664.5,561C 664.167,560.5 663.833,560 663.5,559.5C 654.111,556.304 645.111,552.304 636.5,547.5C 628.658,551.587 620.658,555.421 612.5,559C 608.909,560.152 605.242,560.985 601.5,561.5C 599.407,561.514 597.574,560.848 596,559.5C 593.91,555.879 594.077,552.379 596.5,549C 602.091,546.803 607.758,544.803 613.5,543C 638.118,533.2 656.118,516.366 667.5,492.5C 664.254,491.272 661.254,489.606 658.5,487.5C 656.813,484.097 657.48,481.264 660.5,479C 664.253,478.909 667.92,478.742 671.5,478.5C 672.911,474.287 673.578,469.954 673.5,465.5C 670.421,465.74 667.421,465.407 664.5,464.5C 661.278,461.945 660.778,458.945 663,455.5C 666.243,453.737 669.743,453.071 673.5,453.5C 672.642,443.107 669.475,433.441 664,424.5C 660.934,388.797 648.768,356.797 627.5,328.5C 624.604,324.095 621.104,320.095 617,316.5C 616.333,315.167 616.333,313.833 617,312.5C 617.483,313.448 617.649,314.448 617.5,315.5C 618.93,315.579 620.264,315.246 621.5,314.5C 622.579,312.457 624.246,311.124 626.5,310.5C 631.548,314.881 636.215,319.548 640.5,324.5C 641.794,325.29 642.961,326.29 644,327.5C 662.617,356.092 673.95,387.425 678,421.5C 683.489,431.456 686.489,442.122 687,453.5C 691.426,454.419 695.926,455.086 700.5,455.5C 705.49,438.696 710.99,422.029 717,405.5C 717.333,400.833 717.667,396.167 718,391.5C 728,368.167 738,344.833 748,321.5C 748.667,319.833 748.667,318.167 748,316.5C 745.881,312.598 744.048,308.598 742.5,304.5C 743.222,304.082 743.722,303.416 744,302.5C 744.674,303.578 745.674,304.245 747,304.5C 749.185,304.079 751.351,303.579 753.5,303C 751.998,302.417 750.665,301.584 749.5,300.5C 750.833,299.38 751.333,298.047 751,296.5C 747.492,300.611 746.992,300.444 749.5,296C 748.446,294.612 748.28,293.112 749,291.5C 751.683,295.138 753.85,298.472 755.5,301.5 Z"/></g>
<g><path style="opacity:1" fill="#fef5e9" d="M 736.5,739.5 C 735.732,738.737 735.232,737.737 735,736.5C 722.829,753.286 706.329,761.62 685.5,761.5C 685.333,750.828 685.5,740.161 686,729.5C 686.5,728 687,726.5 687.5,725C 687.07,724.035 686.404,723.535 685.5,723.5C 689.378,709.33 693.878,695.33 699,681.5C 712.585,682.688 722.918,689.355 730,701.5C 736.489,713.443 738.656,726.11 736.5,739.5 Z"/></g>
<g><path style="opacity:1" fill="#fdf5ea" d="M 724.5,565.5 C 739.084,565.251 747.917,572.251 751,586.5C 753.218,603.482 748.718,618.315 737.5,631C 727.2,640.028 715.866,641.695 703.5,636C 696.996,630.453 695.829,623.953 700,616.5C 704.296,618.655 708.796,620.322 713.5,621.5C 718.876,620.081 720.543,616.748 718.5,611.5C 713.995,609.051 709.329,606.884 704.5,605C 701.06,598.617 702.393,593.284 708.5,589C 710.5,588.333 712.5,588.333 714.5,589C 719.729,592.173 725.229,593.006 731,591.5C 732.373,589.305 732.706,586.971 732,584.5C 726.671,580.955 721.171,577.788 715.5,575C 717.342,570.66 720.342,567.493 724.5,565.5 Z"/></g>
<g><path style="opacity:1" fill="#fcc9b8" d="M 681.5,496.5 C 682.901,496.971 684.234,497.638 685.5,498.5C 679.966,513.769 674.633,529.103 669.5,544.5C 669,544.833 668.5,545.167 668,545.5C 661.833,543 655.667,540.5 649.5,538C 663.09,526.265 673.757,512.432 681.5,496.5 Z"/></g>
<g><path style="opacity:1" fill="#c89770" d="M 767.5,416.5 C 771.292,417.708 774.959,419.208 778.5,421C 764.385,463.96 749.885,506.794 735,549.5C 731.17,550.199 727.337,550.866 723.5,551.5C 722.722,550.844 722.056,550.011 721.5,549C 735.903,506.878 750.07,464.711 764,422.5C 764.925,420.31 766.092,418.31 767.5,416.5 Z"/></g>
<g><path style="opacity:1" fill="#fad3c2" d="M 687.5,466.5 C 690.321,466.539 692.988,467.205 695.5,468.5C 693.568,473.796 691.735,479.129 690,484.5C 687.956,485.772 686.122,485.439 684.5,483.5C 686.15,477.954 687.15,472.287 687.5,466.5 Z"/></g>
<g><path style="opacity:1" fill="#fce8c8" d="M 773.5,330.5 C 771.864,331.749 770.697,333.416 770,335.5C 762.962,355.461 755.462,375.128 747.5,394.5C 743.126,393.656 738.793,392.656 734.5,391.5C 742.279,369.944 750.612,348.61 759.5,327.5C 764.348,327.672 769.015,328.672 773.5,330.5 Z"/></g>
<g><path style="opacity:1" fill="#f0a97c" d="M 792.5,337.5 C 795.419,338.293 798.085,339.626 800.5,341.5C 795.672,359.478 790.838,377.478 786,395.5C 785.086,399.604 783.419,403.27 781,406.5C 777.792,404.971 774.625,403.637 771.5,402.5C 779.065,381.134 786.065,359.468 792.5,337.5 Z"/></g>
<g><path style="opacity:1" fill="#fec997" d="M 773.5,330.5 C 779.894,332.632 786.228,334.965 792.5,337.5C 786.065,359.468 779.065,381.134 771.5,402.5C 763.353,400.006 755.353,397.34 747.5,394.5C 755.462,375.128 762.962,355.461 770,335.5C 770.697,333.416 771.864,331.749 773.5,330.5 Z"/></g>
<g><path style="opacity:1" fill="#fed5bb" d="M 531.5,612.5 C 542.48,614.548 553.147,617.715 563.5,622C 592.474,632.815 614.474,651.649 629.5,678.5C 636.588,694.449 639.088,711.115 637,728.5C 631.11,760.117 615.61,785.95 590.5,806C 560.697,828.734 527.364,843.567 490.5,850.5C 477.532,851.942 464.532,852.442 451.5,852C 425.905,850.504 417.238,837.504 425.5,813C 425.435,805.537 422.435,799.537 416.5,795C 406.774,789.844 396.44,788.178 385.5,790C 374.527,792.092 363.527,794.092 352.5,796C 339.022,798.346 325.688,797.679 312.5,794C 284.548,784.914 271.381,765.747 273,736.5C 278.907,710.847 291.407,689.014 310.5,671C 311.437,670.308 312.103,670.475 312.5,671.5C 311.711,671.783 311.044,672.283 310.5,673C 323.866,685.182 339.532,692.849 357.5,696C 381.004,700.502 402.337,695.835 421.5,682C 428.017,676.875 431.851,670.375 433,662.5C 432.051,664.093 430.885,665.426 429.5,666.5C 432.235,661.278 434.568,655.945 436.5,650.5C 436.369,651.239 436.536,651.906 437,652.5C 438.337,648.974 438.837,645.308 438.5,641.5C 441.43,640.213 443.763,640.713 445.5,643C 444.551,643.617 443.718,643.451 443,642.5C 442.676,644.569 441.842,644.902 440.5,643.5C 439.353,645.765 439.186,648.098 440,650.5C 441.865,647.445 444.199,644.778 447,642.5C 449.825,643.584 449.992,644.751 447.5,646C 449.474,647.322 451.308,646.822 453,644.5C 453.034,646.18 453.201,647.68 453.5,649C 452.833,649.333 452.167,649.667 451.5,650C 453.074,651.826 453.907,653.993 454,656.5C 454.483,655.552 454.649,654.552 454.5,653.5C 457.711,668.323 467.045,676.489 482.5,678C 497.574,680.205 510.074,675.705 520,664.5C 528.288,648.653 525.121,635.653 510.5,625.5C 510.369,624.624 510.702,623.957 511.5,623.5C 512.962,624.471 514.295,624.138 515.5,622.5C 514.312,622.693 512.978,622.193 511.5,621C 512.833,620.667 514.167,620.333 515.5,620C 512.17,617.857 511.836,615.357 514.5,612.5C 520.284,612.534 525.951,612.534 531.5,612.5 Z"/></g>
<g><path style="opacity:1" fill="#fedb98" d="M 558.5,724.5 C 575.108,725.04 586.941,732.707 594,747.5C 594.982,766.314 586.149,777.814 567.5,782C 551.882,784.582 539.716,779.416 531,766.5C 523.859,746.612 530.359,733.112 550.5,726C 553.365,725.817 556.031,725.317 558.5,724.5 Z"/></g>
<g><path style="opacity:1" fill="#6e4a3a" d="M 374.5,770.5 C 359.154,778.991 343.487,779.658 327.5,772.5C 310.49,759.982 307.324,744.649 318,726.5C 338.72,705.84 360.053,705.173 382,724.5C 392.336,741.843 389.836,757.176 374.5,770.5 Z"/></g>
<g><path style="opacity:1" fill="#f2d7c0" d="M 346.5,725.5 C 357.063,724.408 365.897,727.741 373,735.5C 377.076,750.788 371.243,759.954 355.5,763C 344.706,765.18 335.54,762.347 328,754.5C 323.352,745.164 325.185,737.33 333.5,731C 337.717,728.549 342.05,726.715 346.5,725.5 Z"/></g>
<g><path style="opacity:1" fill="#c0cfb4" d="M 560.5,654.5 C 574.347,652.211 586.681,655.378 597.5,664C 607.054,678.382 605.054,691.049 591.5,702C 571.636,712.81 553.802,710.31 538,694.5C 531.196,679.246 535.029,667.413 549.5,659C 553.053,656.879 556.72,655.379 560.5,654.5 Z"/></g>
<g><path style="opacity:1" fill="#f2d6c0" d="M 685.5,723.5 C 686.404,723.535 687.07,724.035 687.5,725C 687,726.5 686.5,728 686,729.5C 685.5,740.161 685.333,750.828 685.5,761.5C 706.329,761.62 722.829,753.286 735,736.5C 735.232,737.737 735.732,738.737 736.5,739.5C 730.97,767.531 714.304,785.031 686.5,792C 678.193,793.622 669.86,793.788 661.5,792.5C 669.672,769.435 677.672,746.435 685.5,723.5 Z"/></g>
<g><path style="opacity:1" fill="#fbedd3" d="M 374.5,770.5 C 367.318,776.337 358.985,779.004 349.5,778.5C 341.261,779.277 333.928,777.277 327.5,772.5C 343.487,779.658 359.154,778.991 374.5,770.5 Z"/></g>
<g><path style="opacity:1" fill="#c0cfb4" d="M 485.5,771.5 C 497.861,769.64 509.195,772.14 519.5,779C 532.454,794.079 531.121,807.746 515.5,820C 500.674,828.273 485.674,828.607 470.5,821C 461.16,814.189 457.66,805.022 460,793.5C 464.999,781.994 473.499,774.66 485.5,771.5 Z"/></g>
<g><path style="opacity:1" fill="#fce4d1" d="M 316.5,809.5 C 325.752,811.125 335.085,811.792 344.5,811.5C 339.886,812.652 333.219,812.819 324.5,812C 321.086,811.703 317.753,811.036 314.5,810C 315.094,809.536 315.761,809.369 316.5,809.5 Z"/></g>
<g><path style="opacity:1" fill="#f4d2c0" d="M 275.5,807.5 C 288.096,816.808 301.096,825.641 314.5,834C 328.262,841.694 341.595,848.86 354.5,855.5C 325.549,843.495 299.216,827.495 275.5,807.5 Z"/></g>
<g><path style="opacity:1" fill="#644132" d="M 429.5,880.5 C 463.171,887.09 497.171,889.757 531.5,888.5C 528.577,889.555 523.577,889.888 516.5,889.5C 516.5,890.5 516.5,891.5 516.5,892.5C 518.484,892.383 520.15,893.05 521.5,894.5C 520.167,895.5 520.167,896.5 521.5,897.5C 519.993,898.739 518.826,898.405 518,896.5C 515.979,899.286 514.479,898.953 513.5,895.5C 511.725,896.629 510.058,897.629 508.5,898.5C 506.927,896.164 505.594,896.164 504.5,898.5C 506.637,899.08 508.47,900.08 510,901.5C 519.598,900.172 529.098,900.172 538.5,901.5C 518.83,902.804 499.163,902.804 479.5,901.5C 483.982,900.674 488.649,900.174 493.5,900C 492.692,899.692 492.025,899.192 491.5,898.5C 493.007,897.261 494.174,897.595 495,899.5C 497.473,898.88 499.973,898.214 502.5,897.5C 504.478,896.197 504.478,894.531 502.5,892.5C 501.167,893.833 499.833,895.167 498.5,896.5C 498.089,895.738 497.923,894.738 498,893.5C 497.346,894.696 496.846,894.696 496.5,893.5C 497,892.5 497.5,891.5 498,890.5C 499.583,892.993 501.083,892.826 502.5,890C 492.824,889.579 483.157,889.079 473.5,888.5C 473.617,890.484 472.95,892.15 471.5,893.5C 468.167,892.167 464.833,890.833 461.5,889.5C 464.848,889.931 468.181,889.431 471.5,888C 461.085,887.047 450.751,885.547 440.5,883.5C 439.259,884.037 438.092,884.704 437,885.5C 435.273,885.354 435.106,884.687 436.5,883.5C 434,882.641 431.667,881.641 429.5,880.5 Z"/></g>
</svg>
